<mxfile host="65bd71144e" modified="2020-12-26T08:17:38.265Z" agent="5.0 (Macintosh; Intel Mac OS X 10_15_7) AppleWebKit/537.36 (KHTML, like Gecko) Code/1.52.1 Chrome/83.0.4103.122 Electron/9.3.5 Safari/537.36" version="13.10.0" etag="1sZZf4La_luwOwgKEyT3" type="embed" pages="2">
    <diagram id="9RAvsS-h9l_RaqHbQVoU" name="Page-1">
        <mxGraphModel dx="968" dy="680" grid="1" gridSize="10" guides="1" tooltips="1" connect="1" arrows="1" fold="1" page="1" pageScale="1" pageWidth="827" pageHeight="1169" math="0" shadow="0">
            <root>
                <mxCell id="0"/>
                <mxCell id="1" parent="0"/>
            </root>
        </mxGraphModel>
    </diagram>
    <diagram id="Iy6hiBkyd7TqngXcxa-a" name="Page-2">
        <mxGraphModel dx="968" dy="680" grid="1" gridSize="10" guides="1" tooltips="1" connect="1" arrows="1" fold="1" page="1" pageScale="1" pageWidth="827" pageHeight="1169" math="0" shadow="0">
            <root>
                <mxCell id="b2n_sUFOuEdE1Q2kJyCJ-0"/>
                <mxCell id="b2n_sUFOuEdE1Q2kJyCJ-1" parent="b2n_sUFOuEdE1Q2kJyCJ-0"/>
                <mxCell id="b2n_sUFOuEdE1Q2kJyCJ-6" value="Users" style="swimlane;fontStyle=0;childLayout=stackLayout;horizontal=1;startSize=26;horizontalStack=0;resizeParent=1;resizeParentMax=0;resizeLast=0;collapsible=1;marginBottom=0;align=center;fontSize=14;" vertex="1" parent="b2n_sUFOuEdE1Q2kJyCJ-1">
                    <mxGeometry x="40" y="60" width="200" height="290" as="geometry"/>
                </mxCell>
                <mxCell id="b2n_sUFOuEdE1Q2kJyCJ-7" value="nicknameÂ " style="text;strokeColor=none;fillColor=none;spacingLeft=4;spacingRight=4;overflow=hidden;rotatable=0;points=[[0,0.5],[1,0.5]];portConstraint=eastwest;fontSize=12;" vertex="1" parent="b2n_sUFOuEdE1Q2kJyCJ-6">
                    <mxGeometry y="26" width="200" height="30" as="geometry"/>
                </mxCell>
                <mxCell id="b2n_sUFOuEdE1Q2kJyCJ-9" value="email&#10;&#10;password&#10;&#10;name_last_name&#10;&#10;name_first_name&#10;&#10;name_last_nbame_kane&#10;&#10;name_firstname_kana&#10;&#10;birthday&#10;&#10;" style="text;strokeColor=none;fillColor=none;spacingLeft=4;spacingRight=4;overflow=hidden;rotatable=0;points=[[0,0.5],[1,0.5]];portConstraint=eastwest;fontSize=12;" vertex="1" parent="b2n_sUFOuEdE1Q2kJyCJ-6">
                    <mxGeometry y="56" width="200" height="234" as="geometry"/>
                </mxCell>
                <mxCell id="b2n_sUFOuEdE1Q2kJyCJ-10" value="Items" style="swimlane;fontStyle=0;childLayout=stackLayout;horizontal=1;startSize=26;horizontalStack=0;resizeParent=1;resizeParentMax=0;resizeLast=0;collapsible=1;marginBottom=0;align=center;fontSize=14;" vertex="1" parent="b2n_sUFOuEdE1Q2kJyCJ-1">
                    <mxGeometry x="380" y="70" width="220" height="280" as="geometry"/>
                </mxCell>
                <mxCell id="b2n_sUFOuEdE1Q2kJyCJ-12" value="item_name&#10;&#10;instruction&#10;&#10;detail&#10;&#10;delievery&#10;&#10;price&#10;&#10;&#10;&#10;&#10;&#10;" style="text;strokeColor=none;fillColor=none;spacingLeft=4;spacingRight=4;overflow=hidden;rotatable=0;points=[[0,0.5],[1,0.5]];portConstraint=eastwest;fontSize=12;" vertex="1" parent="b2n_sUFOuEdE1Q2kJyCJ-10">
                    <mxGeometry y="26" width="220" height="254" as="geometry"/>
                </mxCell>
                <mxCell id="b2n_sUFOuEdE1Q2kJyCJ-14" value="addresses" style="swimlane;fontStyle=0;childLayout=stackLayout;horizontal=1;startSize=26;horizontalStack=0;resizeParent=1;resizeParentMax=0;resizeLast=0;collapsible=1;marginBottom=0;align=center;fontSize=14;" vertex="1" parent="b2n_sUFOuEdE1Q2kJyCJ-1">
                    <mxGeometry x="690" y="190" width="160" height="290" as="geometry"/>
                </mxCell>
                <mxCell id="b2n_sUFOuEdE1Q2kJyCJ-16" value="zip_code&#10;&#10;urban&#10;&#10;city&#10;&#10;address&#10;&#10;building&#10;&#10;telephone_number&#10;&#10;" style="text;strokeColor=none;fillColor=none;spacingLeft=4;spacingRight=4;overflow=hidden;rotatable=0;points=[[0,0.5],[1,0.5]];portConstraint=eastwest;fontSize=12;" vertex="1" parent="b2n_sUFOuEdE1Q2kJyCJ-14">
                    <mxGeometry y="26" width="160" height="264" as="geometry"/>
                </mxCell>
                <mxCell id="b2n_sUFOuEdE1Q2kJyCJ-25" value="records" style="swimlane;fontStyle=0;childLayout=stackLayout;horizontal=1;startSize=26;horizontalStack=0;resizeParent=1;resizeParentMax=0;resizeLast=0;collapsible=1;marginBottom=0;align=center;fontSize=14;" vertex="1" parent="b2n_sUFOuEdE1Q2kJyCJ-1">
                    <mxGeometry x="350" y="440" width="160" height="86" as="geometry"/>
                </mxCell>
                <mxCell id="b2n_sUFOuEdE1Q2kJyCJ-27" value="item" style="text;strokeColor=none;fillColor=none;spacingLeft=4;spacingRight=4;overflow=hidden;rotatable=0;points=[[0,0.5],[1,0.5]];portConstraint=eastwest;fontSize=12;" vertex="1" parent="b2n_sUFOuEdE1Q2kJyCJ-25">
                    <mxGeometry y="26" width="160" height="30" as="geometry"/>
                </mxCell>
                <mxCell id="b2n_sUFOuEdE1Q2kJyCJ-28" value="user" style="text;strokeColor=none;fillColor=none;spacingLeft=4;spacingRight=4;overflow=hidden;rotatable=0;points=[[0,0.5],[1,0.5]];portConstraint=eastwest;fontSize=12;" vertex="1" parent="b2n_sUFOuEdE1Q2kJyCJ-25">
                    <mxGeometry y="56" width="160" height="30" as="geometry"/>
                </mxCell>
                <mxCell id="b2n_sUFOuEdE1Q2kJyCJ-29" value="" style="edgeStyle=entityRelationEdgeStyle;fontSize=12;html=1;endArrow=ERzeroToMany;endFill=1;" edge="1" parent="b2n_sUFOuEdE1Q2kJyCJ-1" source="b2n_sUFOuEdE1Q2kJyCJ-9">
                    <mxGeometry width="100" height="100" relative="1" as="geometry">
                        <mxPoint x="245" y="300" as="sourcePoint"/>
                        <mxPoint x="380" y="198" as="targetPoint"/>
                    </mxGeometry>
                </mxCell>
                <mxCell id="b2n_sUFOuEdE1Q2kJyCJ-30" value="" style="edgeStyle=entityRelationEdgeStyle;fontSize=12;html=1;endArrow=ERzeroToMany;endFill=1;exitX=1.01;exitY=0.932;exitDx=0;exitDy=0;exitPerimeter=0;" edge="1" parent="b2n_sUFOuEdE1Q2kJyCJ-1" source="b2n_sUFOuEdE1Q2kJyCJ-9">
                    <mxGeometry width="100" height="100" relative="1" as="geometry">
                        <mxPoint x="250" y="560" as="sourcePoint"/>
                        <mxPoint x="350" y="460" as="targetPoint"/>
                    </mxGeometry>
                </mxCell>
                <mxCell id="b2n_sUFOuEdE1Q2kJyCJ-34" value="" style="endArrow=none;html=1;rounded=0;entryX=-0.006;entryY=0.811;entryDx=0;entryDy=0;entryPerimeter=0;" edge="1" parent="b2n_sUFOuEdE1Q2kJyCJ-1" target="b2n_sUFOuEdE1Q2kJyCJ-16">
                    <mxGeometry relative="1" as="geometry">
                        <mxPoint x="510" y="460" as="sourcePoint"/>
                        <mxPoint x="670" y="460" as="targetPoint"/>
                    </mxGeometry>
                </mxCell>
                <mxCell id="b2n_sUFOuEdE1Q2kJyCJ-35" value="" style="endArrow=none;html=1;rounded=0;entryX=0;entryY=0.193;entryDx=0;entryDy=0;entryPerimeter=0;" edge="1" parent="b2n_sUFOuEdE1Q2kJyCJ-1" target="b2n_sUFOuEdE1Q2kJyCJ-16">
                    <mxGeometry relative="1" as="geometry">
                        <mxPoint x="600" y="150" as="sourcePoint"/>
                        <mxPoint x="760" y="150" as="targetPoint"/>
                    </mxGeometry>
                </mxCell>
                <mxCell id="b2n_sUFOuEdE1Q2kJyCJ-36" value="" style="endArrow=none;html=1;rounded=0;entryX=0.65;entryY=1.008;entryDx=0;entryDy=0;entryPerimeter=0;exitX=0.713;exitY=-0.023;exitDx=0;exitDy=0;exitPerimeter=0;" edge="1" parent="b2n_sUFOuEdE1Q2kJyCJ-1" source="b2n_sUFOuEdE1Q2kJyCJ-25" target="b2n_sUFOuEdE1Q2kJyCJ-12">
                    <mxGeometry relative="1" as="geometry">
                        <mxPoint x="370" y="380" as="sourcePoint"/>
                        <mxPoint x="530" y="360" as="targetPoint"/>
                    </mxGeometry>
                </mxCell>
            </root>
        </mxGraphModel>
    </diagram>
</mxfile>